<?xml version="1.0" encoding="utf-8"?>
<!-- Generator: Adobe Illustrator 17.1.0, SVG Export Plug-In . SVG Version: 6.00 Build 0)  -->
<!DOCTYPE svg PUBLIC "-//W3C//DTD SVG 1.1//EN" "http://www.w3.org/Graphics/SVG/1.1/DTD/svg11.dtd">
<svg version="1.1" id="Final_Bot__x26__Logo" xmlns="http://www.w3.org/2000/svg" xmlns:xlink="http://www.w3.org/1999/xlink"
   x="0px" y="0px" viewBox="85 0 639.558 612" enable-background="new 85 0 639.558 612" xml:space="preserve">
<g>
  <path fill="#F0924C" d="M557.504,429.04c8.204-26.074,6.66-56.908-7.886-81.953c4.42-4.617,9.158-8.908,14.221-12.693l1.219,1.605
    c38.448-25.635,83.3-22.426,118.547,9.612c39.281,36.465,44.148,87.667,27.557,128.802
    c-29.472,30.751-71.061,49.589-114.059,41.007c-30.887-5.449-51.459-22.237-69.336-42.74c13.775-9.998,24.091-25.695,29.729-43.572
    v-0.068H557.504z"/>
  <path fill="#F09957" d="M611.907,12.533c3.905,19.482-0.961,39.856-21.215,51.133c-26.013,15.061-42.611,6.153-50.429-11.724
    C563.718,65.46,599.472,46.433,611.907,12.533z"/>
  <path fill="#F09957" d="M568.266,531.443c-24.545-12.685-40.113-32.038-48.06-54.078c2.626-1.415,5.124-2.952,7.561-4.685
    c17.877,20.503,38.448,37.29,69.336,42.74c42.997,8.583,84.579-10.255,114.059-41.007
    C689.886,527.401,633.114,563.867,568.266,531.443z"/>
  <path fill="#F09957" d="M598.7,257.566c1.476,8.333-0.704,17.695-8.008,27.171c-25.506,32.81-44.791,18.967-51.966-6.153
    C560.766,286.531,586.083,278.652,598.7,257.566z"/>
  <path fill="#F0924C" d="M555.445-32.455l-0.636-1.219c23.387-12.299,50.944,15.826,57.097,46.199
    c-12.435,33.9-48.189,52.927-71.644,39.41C529.818,27.905,535.267-12.269,555.445-32.455z"/>
  <path fill="#F0924C" d="M539.491,230.909c21.919-13.268,55.364,2.437,59.209,26.649c-12.624,21.086-37.934,28.973-59.973,21.018
    C534.563,264.173,534.435,246.039,539.491,230.909z"/>
  <path fill="#F0924C" d="M549.617,347.087c14.539,25.044,16.083,55.879,7.886,81.953v0.068
    c-11.981,12.299-26.914,20.443-42.997,24.537C509.693,415.969,523.347,374.894,549.617,347.087z"/>
  <path fill="#F09957" d="M557.504,429.108c-5.639,17.877-15.955,33.574-29.729,43.572c-4.42-5.063-8.59-10.248-12.753-15.629
    c-0.257-1.09-0.386-2.248-0.515-3.398C530.59,449.551,545.523,441.415,557.504,429.108z"/>
  <path fill="#F0924C" d="M494.571,749.312c61.646-4.738,97.022,50.172,91.701,102.471c-17.43,44.14-83.171,76.125-128.863,63.69
    c-0.447-6.093-1.854-12.117-4.102-17.756c-6.025-15.251-18.324-27.875-36.912-32.545c-7.69-37.048,5.578-80.227,54.532-110.025
    C478.427,751.749,486.374,749.706,494.571,749.312z"/>
  <path fill="#F0924C" d="M527.774,472.68c-2.437,1.733-4.935,3.27-7.561,4.685c-2.437-6.607-4.17-13.396-5.192-20.314
    C519.184,462.425,523.347,467.617,527.774,472.68z"/>
  <path fill="#F09957" d="M515.021,457.051c1.022,6.918,2.755,13.714,5.192,20.314c-18.906,9.991-43.126,9.991-70.486-6.797
    c-14.161-9.158-24.348-22.812-30.819-38.509c26.074,21.782,62.032,29.729,93.813,22.04
    C513.477,455.061,514.242,456.09,515.021,457.051z"/>
  <path fill="#F0924C" d="M514.507,453.645c0.129,1.15,0.257,2.316,0.515,3.398c-0.772-0.961-1.536-1.991-2.308-2.952
    C513.349,454.031,513.924,453.842,514.507,453.645z"/>
  <path fill="#F0924C" d="M512.713,454.099c-31.78,7.69-67.739-0.257-93.813-22.04c-16.023-38.834-9.037-90.354,19.224-117.268
    c0.068-0.068,0.136-0.068,0.189-0.136c24.348-13.646,56.197-13.714,81.9,2.119c12.874,8.136,22.615,18.581,29.412,30.312
    c-26.271,27.807-39.924,68.882-35.118,106.558C513.924,453.842,513.349,454.031,512.713,454.099z"/>
  <path fill="#F09957" d="M457.409,915.473c45.692,12.435,111.44-19.55,128.863-63.69c-1.854,18.316-8.78,36.329-21.207,51.323
    c-36.011,43.254-77.411,44.155-107.724,24.219C457.788,923.412,457.856,919.439,457.409,915.473z"/>
  <path fill="#F09957" d="M475.475-15.599c12.624,28.261,6.471,61.517-38.577,76.064c-22.486,5.896-42.036-1.09-56.386-14.032
    C419.536,59.822,465.931,30.024,475.475-15.599z"/>
  <path fill="#F0924C" d="M457.409,915.473c0.447,3.966,0.386,7.939-0.068,11.852c-1.983-1.272-3.905-2.687-5.76-4.102
    c1.022-2.876,1.794-5.888,2.18-8.908C454.912,914.761,456.191,915.087,457.409,915.473z"/>
  <path fill="#F0924C" d="M457.409,915.473c-1.219-0.386-2.498-0.711-3.648-1.158c0.901-5.381,0.772-10.952-0.447-16.59
    C455.555,903.355,456.963,909.38,457.409,915.473z"/>
  <path fill="#F0924C" d="M453.307,897.717c1.219,5.639,1.347,11.209,0.447,16.59c-7.364-2.43-14.161-6.146-20.057-11.209
    c-1.09-1.022-2.119-2.044-3.08-3.073c-6.789-10.377-11.724-22.237-14.221-34.853C434.984,869.849,447.282,882.474,453.307,897.717z
    "/>
  <path fill="#F0924C" d="M453.754,914.315c-0.386,3.012-1.15,6.032-2.18,8.908c-8.076-6.403-15.19-14.289-20.957-23.19
    c0.961,1.029,1.991,2.051,3.08,3.073C439.593,908.162,446.389,911.878,453.754,914.315z"/>
  <path fill="#F0924C" d="M470.927,755.148c-48.954,29.797-62.221,72.984-54.532,110.025c-0.636-0.197-1.279-0.394-1.922-0.515
    c-0.378-0.121-0.833-0.189-1.219-0.318C406.215,822.364,432.932,771.995,470.927,755.148z"/>
  <path fill="#F0924C" d="M414.473,864.657c0.636,0.129,1.287,0.318,1.922,0.515c2.505,12.617,7.432,24.477,14.221,34.853
    c-9.612-10.255-15.122-22.554-17.362-35.686C413.64,864.468,414.094,864.529,414.473,864.657z"/>
  <path fill="#F0924C" d="M413.262,864.339c2.24,13.132,7.75,25.43,17.362,35.686c5.767,8.908,12.882,16.795,20.957,23.19
    c-11.209,31.917-54.342,53.313-85.162,34.354c-44.284-27.043-26.271-76.708,10.573-91.133
    C387.816,862.22,400.251,861.002,413.262,864.339z"/>
  <path fill="#F0924C" d="M332.52,509.206c14.358-4.299,30.252-4.806,46.713-0.189c55.553,15.894,80.416,68.632,72.151,116.367
    c-28.571,54.464-116.178,66.702-158.653,21.396C244.346,598.41,276.898,525.736,332.52,509.206z"/>
  <path fill="#F09957" d="M376.993,866.436c-36.844,14.426-54.857,64.091-10.573,91.133c30.819,18.959,73.953-2.437,85.162-34.354
    c1.862,1.423,3.777,2.831,5.76,4.102c-2.112,23.137-16.401,45.298-42.868,52.677C333.67,1006.917,311.563,882.845,376.993,866.436z
    "/>
  <path fill="#F0924C" d="M203.014,50.845c84.458,2.437,159.811,73.885,154.876,148.73c-6.728,18.452-19.353,34.596-35.436,47.675
    c-9.226-8.522-20.443-15.569-32.931-20.185c-5.578-1.862-11.088-2.952-16.401-3.33c-18.324-7.175-33.642-0.575-44.602,13.132
    c-15.19,11.277-25.506,28.39-27.36,46.138c-21.215-2.558-40.757-10.255-55.811-23.902C71.654,191.825,81.266,44.442,203.014,50.845
    z"/>
  <path fill="#F0924C" d="M380.52,46.433c-27.557-24.802-35.951-71.387-9.68-90.611c35.693-39.145,87.47-9.93,104.643,28.518
    c0,0.068,0,0.068,0,0.068C465.931,30.024,419.536,59.822,380.52,46.433z"/>
  <path fill="#F0924C" d="M357.897,199.575c-1.279,20.503-8.658,41.203-23.516,60.874c-3.519-4.677-7.493-9.097-11.921-13.2
    C338.545,234.171,351.169,218.028,357.897,199.575z"/>
  <path fill="#F09957" d="M292.724,646.78c42.482,45.306,130.081,33.067,158.653-21.396c-4.927,29.343-22.426,56.833-52.927,72.666
    c-136.689,68.375-183.008-179.61-65.938-188.844C276.898,525.736,244.346,598.41,292.724,646.78z"/>
  <path fill="#F0924C" d="M273.122,223.734c-16.787-1.279-32.303,3.974-44.602,13.132
    C239.472,223.159,254.791,216.559,273.122,223.734z"/>
  <path fill="#F0924C" d="M212.119,320.749c0,0.129,0.061,0.257,0.061,0.447c-0.129-0.189-0.257-0.318-0.386-0.507
    C211.922,320.749,212.051,320.749,212.119,320.749z"/>
  <path fill="#F0924C" d="M212.119,320.749c-0.061,0-0.189,0-0.318-0.068c-8.969-11.595-12.049-24.795-10.634-37.676
    c3.141,0.386,6.282,0.643,9.476,0.825C209.107,296.211,209.485,308.957,212.119,320.749z"/>
  <path fill="#F0924C" d="M228.52,236.866c-9.483,11.86-15.705,28.965-17.885,46.971c-3.202-0.182-6.335-0.447-9.476-0.825
    C203.014,265.256,213.33,248.143,228.52,236.866z"/>
  <path fill="#F08331" d="M570.181,777.596c-61.517-83.201-167.553-2.051-161.506,81.423c-13.268-1.34-27.118,1.044-39.16,6.759
    c-39.069,14.35-46.078,71.016-18.831,104.658c19.073,23.538,50.929,21.782,76.163,10.8c19.171-8.341,30.123-26.248,33.703-45.737
    c2.899,1.552,5.866,2.99,8.938,4.14c37.798,14.236,76.64-2.399,100.564-33.62c13.381-17.468,20.435-37.752,21.502-58.316
    c0.386-7.41,0.045-14.842-1.128-22.191C587.702,808.597,580.944,792.15,570.181,777.596z M347.4,903.734
    c7.432-28.064,36.844-38.138,62.6-34.725c0.386,2.127,0.787,4.246,1.324,6.35c3.474,13.533,9.642,23.826,17.567,31.485
    c4.534,6.433,9.763,12.299,15.576,17.423c-5.775,15.818-18.702,27.784-39.251,33.9C372.081,968.022,338.582,937.021,347.4,903.734z
     M423.366,872.226c11.527,4.549,19.565,13.608,24.295,24.439c0.265,3.103,0.386,6.13,0.288,9.067
    c-5.26-2.596-10.066-5.956-14.252-10.18C429.3,888.256,425.818,880.392,423.366,872.226z M353.659,955.473
    c17.332,13.646,43.89,16.552,64.023,8.681c13.381-5.222,25.96-16.303,33.726-29.57
    C441.962,979.866,379.074,992.695,353.659,955.473z M461.791,923.768c0.015-0.288,0.008-0.575,0.015-0.855
    c36.087,6.244,81.786-12.102,109.177-41.506C551.154,921.951,506.09,949.198,461.791,923.768z M580.141,852.82
    c-19.338,41.105-77.48,67.542-119.008,57.62c-0.363-2.71-0.802-5.404-1.438-8.03c-0.939-3.883-2.263-7.379-3.754-10.71
    c-0.121-0.272-0.257-0.552-0.378-0.825c-7.251-15.569-20.11-25.256-34.899-29.555c-0.787-4.102-1.423-8.212-1.733-12.299
    c-2.157-27.338,9.605-50.49,27.088-69.215c7.644-7.985,16.341-14.751,25.635-19.693c42.717-22.683,90.392,8.969,104.969,49.483
    C581.648,823.575,582.495,838.425,580.141,852.82z M453.935,637.585c1.044-3.262,1.915-6.509,2.626-9.726
    c2.399-10.831,2.891-21.336,1.93-31.387c-6.282-65.9-78.509-111.394-137.218-87.682c-63.917,11.224-71.864,96.749-47.008,151.659
    C313.765,747.73,427.665,719.999,453.935,637.585z M279.146,567c17.415-57.279,85.381-67.095,130.028-37.464
    c30.04,19.936,41.816,56.916,37.26,91.292C404.406,701.721,247.608,670.69,279.146,567z M337.182,702.16
    c-29.222-6.04-48.144-33.438-57.862-59.625c-1.097-2.959-2.059-5.987-2.937-9.067c8.257,13.843,20.102,25.922,34.581,34.528
    c39.213,23.304,92.314,13.351,125.919-15.213C419.597,687.825,375.479,710.107,337.182,702.16z M346.386,338.815
    c8.341-13.412,11.164-27.277,9.983-40.636c-0.477-5.366-1.536-10.657-3.239-15.788c-2.664-8.015-6.766-15.644-11.89-22.683
    c11.746-17.642,19.3-37.517,21.207-58.823c0.969-10.74,0.575-21.82-1.514-33.173c-0.5-2.77-1.188-5.472-1.892-8.167
    c-13.767-52.776-63.909-91.466-113.544-107.565c-32.484-10.535-68.73-10.498-98.271,4.004
    C33.849,81.839,94.405,298.156,207.373,323.92c5.404,22.221,18.354,41.06,41.113,48.931
    C279.101,383.439,329.477,365.994,346.386,338.815z M334.011,250.83c-1.067-1.15-2.195-2.248-3.315-3.36
    c4.322-3.989,8.363-8.219,12.087-12.7C340.27,240.294,337.326,245.661,334.011,250.83z M205.398,313.377
    c-1.325-0.363-2.634-0.81-3.943-1.241c-20.912-6.759-39.939-20.541-55.281-37.517c-8.008-8.863-15.69-19.868-22.539-32.166
    c18.679,24.386,43.444,39.19,72.386,44.496c3.262,0.598,6.562,1.105,9.922,1.453C204.77,297.793,204.588,306.497,205.398,313.377z
     M197.194,276.094c-41.302-8.416-72.855-39.886-87.092-84.957c-16.643-52.685,0.991-115.027,57.96-131.542
    c70.963-20.571,153.037,31.236,178.195,96.757c5.177,13.487,7.031,27.02,6.252,40.219c-6.032,16.991-16.885,31.379-30.57,43.201
    c-16.083-12.624-35.89-20.587-55.394-20.973c-15.864-6.1-28.617-0.515-38.305,10.861c-10.233,12.004-17.06,30.38-20.571,48.038
    C204.119,277.328,200.622,276.798,197.194,276.094z M312.433,247.235c-19.133,13.737-42.195,23.198-65.082,28.163
    c-10.445,2.263-20.503,3.111-30.206,2.891c2.71-15.705,9.007-30.244,18.551-40.204
    C260.422,221.502,290.348,229.237,312.433,247.235z M215.881,289.127c11.065,0.394,22.622-0.439,34.581-2.505
    c25.241-4.359,50.278-15.281,70.797-31.198c1.839,1.93,3.588,3.936,5.237,6.002c-17.377,22.297-41.612,40.068-67.247,49.688
    c-14.153,5.313-28.155,6.524-41.605,4.723C215.865,307.231,215.29,298.126,215.881,289.127z M223.964,326.274
    c22.297,1.256,46.267-4.95,71.084-21.283c14.622-9.62,27.55-21.132,38.1-34.142c5.412,8.916,8.946,18.543,10.066,28.155
    c-16.098,31.955-56.113,47.5-90.982,41.044C240.509,337.876,231.078,332.934,223.964,326.274z M535.093,50.86
    c0.151,0.447,0.348,0.817,0.515,1.249c10.649,28.617,43.436,28.965,64.946,10.687c14.986-12.738,18.785-30.88,15.773-48.469
    c-1.075-6.289-2.997-12.496-5.631-18.377c-8.757-19.527-25.029-35.179-41.635-37.109c-6.07-0.704-12.17,0.492-17.983,3.936
    c-24.462,21.631-22.622,56.87-18.937,76.685C532.853,43.314,533.829,47.129,535.093,50.86z M591.646,57.468
    c-14.978,10.967-29.412,10.982-39.387,2.278c5.979,0.969,12.677,0.568,20.057-1.529c13.76-3.905,25.612-13.275,34.157-25.188
    C604.755,42.542,600.138,51.246,591.646,57.468z M550.473-23.622c1.673-2.967,3.474-5.798,5.472-8.341
    c-0.454,0.583-0.863,1.226-1.302,1.832C553.167-28.08,551.767-25.915,550.473-23.622c23.69-19.194,49.801,6.993,55.606,36.11
    c-5.245,13.563-13.911,25.188-27.898,33.582c-12.428,7.447-24.219,7.463-34.028,2.672c-1.347-2.838-2.467-5.987-3.315-9.468
    C536.16,19.973,540.164-5.336,550.473-23.622z M365.141,34.172c3.156,4.988,6.963,9.393,11.217,13.26
    c28.148,25.589,76.745,26.104,99.754-8.681c11.451-17.309,10.974-36.655,3.724-54.093c-2.361-5.684-5.465-11.118-9.09-16.25
    c-7.841-11.103-18.172-20.655-29.343-27.186c-25.983-15.183-56.189-8.129-73.196,11.202c-22.274,14.6-17.135,56.288-4.904,78.6
    C363.899,32.121,364.512,33.188,365.141,34.172z M475.907-1.484c2.089,10.066,1.514,20.481-2.944,30.259
    c-13.555,29.782-47.584,34.929-74.24,23.614c11.724,0.477,24.204-2.104,36.935-8.288C454.692,34.875,468.565,17.96,475.907-1.484z
     M384.584-48.144c1.582-0.863,3.171-1.733,4.814-2.581c0.378-0.189,0.484-0.53,0.492-0.87c13.858-7.796,31.061-8.386,50.142,2.301
    c12.155,6.804,23.031,18.089,29.82,31.122c-2.528,17.415-10.641,33.612-27.451,48.295c-19.928,17.415-41.938,19.133-61.366,11.254
    c-1.862-1.635-3.625-3.368-5.268-5.222c-9.938-11.277-15.765-26.308-17.082-41.264C363.074-23.433,372.172-38.888,384.584-48.144z
     M588.467,232.204c-10.717-9.097-29.063-13.972-43.489-9.892c-1.62,0.454-3.171,1.037-4.67,1.718
    c-14.464,15.849-9.37,37.941-7.743,47.886c0.469,2.838,1.06,5.639,1.854,8.371c0.802,2.785,1.733,5.525,2.884,8.166
    c9.574,22.115,29.54,25.302,47.425,10.149c13.086-11.073,19.913-26.165,18.225-40.598c-0.484-4.185-1.718-8.31-3.701-12.261
    C596.823,240.908,593.311,236.321,588.467,232.204z M574.253,294.455c-13.094,9.96-22.698,1.287-28.261-10.059
    c5.888,1.272,12.14,1.468,18.657,0.318c10.361-1.832,19.504-6.244,26.793-12.526C588.172,280.688,581.784,288.726,574.253,294.455z
     M566.253,276.646c-8.083,2.263-16.045,1.869-23.478-0.363c-0.061-0.204-0.144-0.424-0.204-0.628
    c-3.504-11.64-4.382-25.362-2.142-38.115c12.783-7.016,25.536-8.204,40.015,0.916c8,5.041,11.898,11.474,12.965,18.301
    C587.309,266.013,578.741,273.157,566.253,276.646z M602.719,316.079c-0.325-1.173-1.438-2.119-3.103-1.809
    c-19.156,3.542-35.61,12.927-49.067,25.847c-2.18-3.504-4.481-6.925-7.054-10.104c-21.692-26.906-58.604-35.504-89.832-26.914
    c-0.28-0.272-0.636-0.454-1.067-0.295c-1.438,0.53-2.687,1.264-4.057,1.877c-20.549,9.272-32.636,27.777-38.131,49.355
    c-5.116,20.14-4.571,42.785-0.136,62.751c1.4,6.305,3.171,12.329,5.298,17.93c0.992,2.604,2.028,5.154,3.164,7.553
    c17.824,37.85,62.032,54.471,97.945,40.772c19.186,45.964,70.986,73.385,121.794,64.129c36.798-6.706,62.766-35.05,76.011-68.708
    c3.315-8.416,5.79-17.15,7.478-25.975c2.535-13.29,3.277-26.755,1.945-39.531C717.489,351.189,659.445,307.39,602.719,316.079z
     M432.002,446.046c23.19,12.897,51.845,17.355,78.07,12.662c0.81,5.654,1.991,11.141,3.678,16.401
    C485.481,486.705,451.052,471.182,432.002,446.046z M508.913,442.951c0.015,2.399,0.023,4.798,0.167,7.167
    c-1.15,0.272-2.354,0.477-3.535,0.711c-6.04,1.173-12.45,1.9-19.383,2.021c-25.915,0.462-47.046-9.673-64.696-25.097
    c-14.577-33.998-7.258-72.045,13.162-101.374c33.302-24.681,80.045-20.662,108.412,19.572c0.272,0.386,0.492,0.802,0.757,1.203
    C521.061,373.017,508.762,409.536,508.913,442.951z M518.473,437.615c-0.878-32,10.687-60.269,30.161-82.157
    c10.498,20.821,11.444,46.025,4.798,68.723c-9.816,10.301-20.942,18.044-34.248,22.895
    C518.821,443.935,518.556,440.786,518.473,437.615z M520.683,456.211c8.272-2.346,16.167-5.631,23.41-9.938
    c-2.581,4.496-5.495,8.764-8.734,12.685c-2.157,2.604-4.42,4.889-6.781,6.948c-2.611-2.959-5.192-5.964-7.765-8.992
    C520.751,456.68,520.728,456.446,520.683,456.211z M624.175,537.573c-44.405,5.207-80.613-22.244-96.719-59.587
    c0.083-0.045,0.159-0.106,0.25-0.159c22.948,24.265,50.672,41.96,87.584,44.761c26.755,2.028,53.147-7.379,75.466-23.228
    C674.317,519.825,650.885,534.448,624.175,537.573z M708.414,468.427c-24.136,25.529-54.38,43.088-93.124,43.921
    c-35.905,0.78-59.482-17.113-80.378-39.478c2.634-2.051,5.169-4.291,7.576-6.781c9.711-10.028,16.333-22.055,20.359-34.937
    c2.445-7.849,3.958-15.977,4.458-24.257c1.226-20.042-3.126-40.583-12.049-58.361c2.891-2.785,5.919-5.457,9.075-7.992
    c0.954,0.174,1.991,0.106,3.103-0.477c42.059-22.274,83.02-19.837,118.047,14.577c20.7,20.344,30.055,49.665,29.745,78.093
    C715.089,445.002,712.652,457.074,708.414,468.427z M228.702,342.614c0.749,0.492,1.438,1.022,2.21,1.506
    c32.28,20.034,82.535,7.099,108.677-19.739c-4.935,11.186-14.615,21.328-30.638,28.92
    C269.057,372.23,242.908,362.943,228.702,342.614z"/>
  <path fill="#F09957" d="M315.067,150.259c3.164,3.557,9.007-0.182,7.781-4.534c-12.322-43.61-100.904-107.459-142.615-66.399
    c-0.378,0.371,0.023,0.931,0.492,0.833C235.188,69.593,281.432,112.484,315.067,150.259z"/>
  <path fill="#F09957" d="M432.728-32.341c-8.848-6.1-17.635-7.576-27.709-10.301c-0.636-0.174-1.105,0.825-0.462,1.097
    c16.341,6.956,30.857,21.215,41.869,34.808c3.769,4.662,10.369-1.975,6.585-6.585C446.987-20.655,440.554-26.952,432.728-32.341z"
    />
  <path fill="#F09957" d="M562.764-19.717c-3.716-1.559-5.684,4.223-2.619,6.221c6.161,4.011,11.239,9.309,15.546,15.251
    c4.458,6.146,6.971,14.38,12.488,19.565c2.286,2.157,5.964,0.621,6.07-2.513c0.273-8.144-5.775-16.999-10.77-23.061
    C577.742-11.21,571.067-16.243,562.764-19.717z"/>
  <path fill="#F09957" d="M510.579,358.448c3.307,2.914,8.923,0.174,7.614-4.435c-2.649-9.34-11.799-16.5-19.701-21.487
    c-9.37-5.904-18.952-6.479-29.548-7.591c-1.665-0.174-1.93,2.437-0.378,2.853c7.947,2.112,16.083,7.069,22.94,11.61
    C499.4,344.612,503.721,352.408,510.579,358.448z"/>
  <path fill="#F09957" d="M610.56,336.885c-3.027-0.81-4.148,3.595-1.279,4.64c22.562,8.182,39.985,23.622,53.449,43.217
    c11.527,16.772,15.939,36.026,25.082,53.737c2.747,5.328,12.322,3.088,11.663-3.156C694.488,388.215,654.7,348.631,610.56,336.885z
    "/>
  <path fill="#F09957" d="M568.017,251.579c-3.497-2.974-8-4.488-12.571-3.981c-1.975,0.219-2.77,3.277-0.5,3.731
    c3.633,0.742,6.153,3.55,8.552,6.206c2.377,2.626,3.307,7.145,7.069,8.053c1.938,0.469,3.512-0.605,4.185-2.377
    C576.418,258.86,570.991,254.107,568.017,251.579z"/>
  <path fill="#F09957" d="M395.112,538.951c-15.591-10.664-36.798-15.364-54.963-9.824c-2.089,0.636-2.49,4.246,0,4.632
    c15.917,2.46,30.691,6.078,44.45,14.797c8.696,5.51,15.833,13.275,21.631,21.692c4.329,6.289,6.04,12.034,12.155,16.742
    c2.399,1.847,6.804-0.03,7.273-2.967C428.618,565.638,408.849,548.351,395.112,538.951z"/>
  <path fill="#F09957" d="M491.369,769.134c-2.816,0.091-3.709,4.7-0.696,5.116c18.43,2.543,31.243,16.484,40.462,31.667
    c9.355,15.41,8.643,30.789,13.654,47.092c1.022,3.323,6.388,4.745,8.053,1.052c8.015-17.801-5.056-42.331-14.986-56.878
    C527.252,781.638,510.927,768.498,491.369,769.134z"/>
  <path fill="#F09957" d="M403.498,886.364c-6.645-2.407-14.1-2.513-21.056-2.081c-3.64,0.219-3.58,5.283,0,5.601
    c5.956,0.545,11.413,1.907,17.029,3.883c5.2,1.832,9.506,5.752,15.001,6.38c2.687,0.31,4.201-3.133,2.982-5.207
    C414.609,890.111,408.562,888.188,403.498,886.364z"/>
  <path fill="#F0924C" d="M273.122,223.734c5.321,0.386,10.831,1.476,16.401,3.33c12.496,4.617,23.712,11.663,32.931,20.185
    c-30.373,24.795-73.044,38.638-111.818,36.579c2.18-17.998,8.394-35.111,17.885-46.971
    C240.819,227.708,256.327,222.448,273.122,223.734z"/>
  <path fill="#F0924C" d="M212.119,320.749c34.028,5.956,72.727-6.607,112.643-48.832c3.527-3.784,6.728-7.561,9.62-11.474
    c8.78,11.792,14.418,25.12,15.894,38.259c-17.43,41.393-83.179,63.879-121.62,37.29c-6.857-4.428-12.307-9.423-16.469-14.812
    C212.18,321.006,212.119,320.877,212.119,320.749z"/>
  <path fill="#F09957" d="M228.649,335.999c38.441,26.588,104.189,4.102,121.62-37.29c2.634,23.644-8.197,46.834-38.32,59.716
    c-61.003,27.754-91.436,0.257-99.769-37.23C216.342,326.576,221.792,331.572,228.649,335.999z"/>
  <path fill="#F0924C" d="M324.762,271.924c-39.917,42.225-78.622,54.781-112.643,48.832c-2.634-11.792-3.005-24.545-1.476-36.912
    c38.774,2.059,81.446-11.784,111.818-36.579c4.42,4.102,8.394,8.522,11.921,13.2C331.491,264.363,328.289,268.139,324.762,271.924z
    "/>
  <path fill="#F09957" d="M307.566,260.162c-18.028-15.198-35.02-15.833-56.802-11.777c-1.272,0.242-0.984,2.384,0.31,2.263
    c17.642-1.62,36.798,11.966,48.431,23.78c11.194,11.368,15.841,26.49,25.907,38.494c1.801,2.149,5.336,0.84,6.025-1.589
    C336.955,291.927,321.553,271.954,307.566,260.162z"/>
</g>
</svg>
