<?xml version="1.0" encoding="utf-8"?>
<!-- Generator: Adobe Illustrator 17.1.0, SVG Export Plug-In . SVG Version: 6.00 Build 0)  -->
<!DOCTYPE svg PUBLIC "-//W3C//DTD SVG 1.1//EN" "http://www.w3.org/Graphics/SVG/1.1/DTD/svg11.dtd">
<svg version="1.1" id="Final_Bot__x26__Logo" xmlns="http://www.w3.org/2000/svg" xmlns:xlink="http://www.w3.org/1999/xlink"
   x="0px" y="0px" viewBox="0 0 184.692 310.333" enable-background="new 0 0 184.692 310.333" xml:space="preserve">
<g>
  <path fill="#FFFFFF" d="M183.245,244.404c0.838,3.184-0.22,6.443-4.97,7.781c-5.004,1.363-7.688-1.55-8.364-5.402
    C174.406,250.72,181.797,249.331,183.245,244.404z"/>
  <path fill="#FFFFFF" d="M178.868,219.952c0.508,2.227-0.101,4.539-2.709,4.716c-2.633,0.204-3.903-1.338-4.251-3.275
    C174.084,222.967,177.691,222.366,178.868,219.952z"/>
  <path fill="#CFEDFC" d="M172.349,217.472c2.743-3.742,5.783-0.72,6.519,2.48c-1.176,2.413-4.784,3.015-6.96,1.44
    c-0.211-1.263-0.034-2.701,0.424-3.93L172.349,217.472z"/>
  <path fill="#CFEDFC" d="M170.655,240.332c3.023-7.417,11.041-1.821,12.59,4.071c-1.448,4.928-8.839,6.316-13.334,2.379
    c-0.381-2.074-0.17-4.418,0.575-6.511L170.655,240.332z"/>
  <path fill="#FFFFFF" d="M174.914,303.187c0.534,1.456,0.398,3.066-0.873,4.453c-3.208,3.455-6.984,0.585-8.153-2.751
    C169.148,306.556,173.288,305.939,174.914,303.187z"/>
  <path fill="#CFEDFC" d="M167.159,299.733c2.548-1.973,6.638,0.39,7.755,3.454c-1.626,2.752-5.766,3.369-9.025,1.702
    c-0.338-0.923-0.457-1.88-0.313-2.753c0-0.008,0-0.008,0.008-0.016c0.364-1.092,0.898-1.863,1.533-2.353
    C167.125,299.749,167.142,299.742,167.159,299.733z"/>
  <path fill="#CFEDFC" d="M167.116,299.767c-0.635,0.49-1.168,1.262-1.533,2.353C165.736,301.172,166.218,300.326,167.116,299.767z"
    />
  <path fill="#CFEDFC" d="M158.379,271.658c6.815-0.398,9.922,4.318,9.838,9.178c-3.751,6.638-13.25,7.079-18.889,1.931
    c-0.101-3.709,1.905-7.756,5.664-9.838l-0.092-0.204C156.008,272.165,157.194,271.793,158.379,271.658z"/>
  <path fill="#CFEDFC" d="M158.802,244.566c3.667,2.954,5.157,6.645,5.081,10.219c-2.828,10.693-19.431,12.326-25.611,3.53
    c-1.27-7.128,4.513-15.139,12.378-16.569C153.511,241.813,156.339,242.77,158.802,244.566z"/>
  <path fill="#FFFFFF" d="M163.882,254.785c-0.178,9.203-10.676,17.66-20.743,10.946c-2.862-2.058-4.386-4.673-4.869-7.416
    C144.451,267.111,161.055,265.478,163.882,254.785z"/>
  <path fill="#FFFFFF" d="M168.217,280.835c-0.102,5.411-4.174,10.989-11.531,9.872c-4.936-0.643-7.265-4.123-7.358-7.941
    C154.967,287.914,164.466,287.473,168.217,280.835z"/>
  <path fill="#CFEDFC" d="M62.556,66.363c1.084-3.445,0.88-7.519-1.042-10.828c0.584-0.61,1.21-1.177,1.879-1.677l0.161,0.212
    c5.08-3.387,11.006-2.963,15.663,1.27c5.19,4.818,5.834,11.582,3.641,17.018c-3.895,4.063-9.389,6.552-15.07,5.419
    c-4.081-0.72-6.799-2.938-9.161-5.647c1.82-1.321,3.183-3.395,3.928-5.757V66.363z"/>
  <path fill="#FFFFFF" d="M69.744,11.331c0.516,2.574-0.127,5.266-2.803,6.756c-3.438,1.99-5.63,0.813-6.663-1.549
    C63.376,18.324,68.101,15.81,69.744,11.331z"/>
  <path fill="#FFFFFF" d="M63.978,79.892c-3.243-1.676-5.3-4.233-6.35-7.145c0.347-0.187,0.677-0.39,0.999-0.619
    c2.362,2.709,5.08,4.927,9.161,5.647c5.681,1.134,11.175-1.355,15.07-5.419C80.047,79.359,72.546,84.176,63.978,79.892z"/>
  <path fill="#FFFFFF" d="M67.999,43.706c0.195,1.101-0.093,2.338-1.058,3.59c-3.37,4.335-5.918,2.506-6.866-0.813
    C62.987,47.534,66.332,46.492,67.999,43.706z"/>
  <path fill="#CFEDFC" d="M62.284,5.387L62.2,5.226c3.09-1.625,6.731,2.091,7.544,6.105c-1.643,4.479-6.367,6.993-9.466,5.207
    C58.898,13.363,59.618,8.054,62.284,5.387z"/>
  <path fill="#CFEDFC" d="M60.176,40.184c2.896-1.753,7.315,0.322,7.823,3.521c-1.667,2.786-5.012,3.828-7.924,2.777
    C59.524,44.579,59.508,42.183,60.176,40.184z"/>
  <path fill="#CFEDFC" d="M61.514,55.535c1.921,3.309,2.125,7.383,1.042,10.828v0.009c-1.583,1.625-3.556,2.701-5.681,3.242
    C56.239,64.636,58.043,59.208,61.514,55.535z"/>
  <path fill="#FFFFFF" d="M62.556,66.371c-0.745,2.362-2.108,4.436-3.928,5.757c-0.584-0.669-1.135-1.354-1.685-2.065
    c-0.034-0.144-0.051-0.297-0.068-0.449C59,69.072,60.973,67.997,62.556,66.371z"/>
  <path fill="#CFEDFC" d="M54.241,108.678c8.145-0.626,12.819,6.629,12.116,13.539c-2.303,5.832-10.989,10.058-17.026,8.415
    c-0.059-0.805-0.245-1.601-0.542-2.346c-0.796-2.015-2.421-3.683-4.877-4.3c-1.016-4.894,0.737-10.6,7.205-14.537
    C52.108,109,53.158,108.73,54.241,108.678z"/>
  <path fill="#CFEDFC" d="M58.627,72.128c-0.322,0.229-0.652,0.432-0.999,0.619c-0.322-0.873-0.551-1.77-0.686-2.684
    C57.493,70.774,58.043,71.459,58.627,72.128z"/>
  <path fill="#FFFFFF" d="M56.942,70.063c0.135,0.914,0.364,1.812,0.686,2.684c-2.498,1.32-5.698,1.32-9.313-0.898
    c-1.871-1.21-3.217-3.014-4.072-5.088c3.445,2.878,8.196,3.928,12.395,2.912C56.739,69.8,56.84,69.936,56.942,70.063z"/>
  <path fill="#CFEDFC" d="M56.874,69.614c0.017,0.152,0.034,0.306,0.068,0.449c-0.102-0.127-0.203-0.263-0.305-0.39
    C56.722,69.664,56.798,69.639,56.874,69.614z"/>
  <path fill="#CFEDFC" d="M56.638,69.673c-4.199,1.016-8.95-0.034-12.395-2.912c-2.117-5.131-1.194-11.938,2.54-15.494
    c0.009-0.009,0.018-0.009,0.025-0.018c3.217-1.803,7.425-1.812,10.821,0.28c1.701,1.075,2.988,2.455,3.886,4.005
    c-3.471,3.674-5.275,9.101-4.64,14.079C56.798,69.639,56.722,69.664,56.638,69.673z"/>
  <path fill="#FFFFFF" d="M49.331,130.632c6.037,1.643,14.724-2.583,17.026-8.415c-0.245,2.42-1.16,4.8-2.802,6.781
    c-4.758,5.715-10.228,5.834-14.233,3.2C49.381,131.681,49.39,131.157,49.331,130.632z"/>
  <path fill="#FFFFFF" d="M51.718,7.614c1.668,3.734,0.855,8.128-5.097,10.05c-2.971,0.779-5.554-0.144-7.45-1.854
    C44.327,17.579,50.456,13.642,51.718,7.614z"/>
  <path fill="#CFEDFC" d="M49.331,130.632c0.059,0.524,0.051,1.049-0.009,1.566c-0.262-0.168-0.516-0.354-0.761-0.542
    c0.135-0.38,0.237-0.778,0.288-1.177C49,130.538,49.169,130.581,49.331,130.632z"/>
  <path fill="#CFEDFC" d="M49.331,130.632c-0.161-0.051-0.33-0.094-0.482-0.153c0.119-0.711,0.102-1.447-0.059-2.192
    C49.085,129.032,49.272,129.827,49.331,130.632z"/>
  <path fill="#CFEDFC" d="M48.789,128.286c0.161,0.745,0.178,1.481,0.059,2.192c-0.973-0.321-1.871-0.812-2.65-1.481
    c-0.144-0.135-0.28-0.271-0.407-0.406c-0.897-1.371-1.549-2.938-1.879-4.605C46.368,124.604,47.993,126.272,48.789,128.286z"/>
  <path fill="#CFEDFC" d="M48.848,130.479c-0.051,0.398-0.152,0.797-0.288,1.177c-1.067-0.846-2.007-1.888-2.769-3.064
    c0.127,0.136,0.263,0.271,0.407,0.406C46.977,129.666,47.875,130.158,48.848,130.479z"/>
  <path fill="#CFEDFC" d="M51.117,109.449c-6.468,3.937-8.221,9.643-7.205,14.537c-0.084-0.026-0.169-0.052-0.254-0.068
    c-0.05-0.016-0.11-0.025-0.161-0.042C42.566,118.33,46.097,111.676,51.117,109.449z"/>
  <path fill="#CFEDFC" d="M43.658,123.918c0.084,0.017,0.17,0.043,0.254,0.068c0.331,1.667,0.982,3.234,1.879,4.605
    c-1.27-1.355-1.998-2.981-2.294-4.715C43.548,123.893,43.608,123.902,43.658,123.918z"/>
  <path fill="#CFEDFC" d="M43.498,123.876c0.296,1.735,1.024,3.36,2.294,4.715c0.762,1.177,1.702,2.219,2.769,3.064
    c-1.481,4.217-7.18,7.044-11.252,4.539c-5.851-3.573-3.471-10.135,1.397-12.041C40.136,123.597,41.778,123.435,43.498,123.876z"/>
  <path fill="#CFEDFC" d="M32.83,76.954c1.897-0.568,3.997-0.635,6.172-0.025c7.34,2.1,10.625,9.068,9.533,15.376
    c-3.775,7.196-15.35,8.813-20.962,2.827C21.18,88.74,25.48,79.138,32.83,76.954z"/>
  <path fill="#FFFFFF" d="M38.706,124.154c-4.868,1.906-7.248,8.468-1.397,12.041c4.072,2.505,9.771-0.322,11.252-4.539
    c0.246,0.188,0.499,0.374,0.761,0.542c-0.279,3.057-2.167,5.985-5.664,6.96C32.982,142.714,30.061,126.322,38.706,124.154z"/>
  <path fill="#CFEDFC" d="M15.719,16.393c11.159,0.322,21.115,9.762,20.463,19.651c-0.889,2.438-2.557,4.571-4.682,6.299
    c-1.219-1.126-2.701-2.057-4.352-2.667c-0.737-0.246-1.465-0.39-2.167-0.44c-2.421-0.948-4.445-0.076-5.893,1.735
    c-2.007,1.49-3.37,3.75-3.615,6.096c-2.803-0.338-5.385-1.355-7.375-3.158C-1.637,35.02-0.367,15.547,15.719,16.393z"/>
  <path fill="#CFEDFC" d="M39.171,15.81c-3.641-3.277-4.75-9.432-1.279-11.972c4.716-5.172,11.557-1.312,13.826,3.768
    c0,0.009,0,0.009,0,0.009C50.456,13.642,44.327,17.579,39.171,15.81z"/>
  <path fill="#CFEDFC" d="M36.183,36.044c-0.169,2.709-1.143,5.444-3.107,8.043c-0.465-0.618-0.99-1.202-1.575-1.744
    C33.625,40.616,35.293,38.482,36.183,36.044z"/>
  <path fill="#FFFFFF" d="M27.572,95.132c5.613,5.986,17.187,4.369,20.962-2.827c-0.651,3.877-2.963,7.509-6.993,9.601
    c-18.06,9.034-24.18-23.732-8.712-24.951C25.48,79.138,21.18,88.74,27.572,95.132z"/>
  <path fill="#CFEDFC" d="M24.981,39.236c0.703,0.051,1.431,0.195,2.167,0.44c1.651,0.61,3.133,1.541,4.352,2.667
    c-4.013,3.276-9.651,5.105-14.774,4.833c0.288-2.378,1.109-4.639,2.363-6.206C20.714,39.761,22.763,39.067,24.981,39.236z"/>
  <path fill="#CFEDFC" d="M24.981,39.236c-2.218-0.169-4.268,0.525-5.893,1.735C20.536,39.16,22.56,38.288,24.981,39.236z"/>
  <path fill="#CFEDFC" d="M16.921,52.055c4.496,0.787,9.609-0.873,14.883-6.452c0.466-0.5,0.889-0.999,1.271-1.516
    c1.16,1.558,1.905,3.319,2.1,5.055c-2.303,5.469-10.99,8.44-16.069,4.927c-0.906-0.585-1.626-1.245-2.176-1.957
    C16.93,52.088,16.921,52.071,16.921,52.055z"/>
  <path fill="#FFFFFF" d="M19.106,54.07c5.079,3.513,13.766,0.542,16.069-4.927c0.348,3.124-1.083,6.188-5.063,7.89
    c-8.06,3.667-12.082,0.034-13.182-4.919C17.48,52.825,18.2,53.485,19.106,54.07z"/>
  <path fill="#CFEDFC" d="M31.805,45.603c-5.274,5.579-10.388,7.238-14.883,6.452c-0.348-1.558-0.397-3.243-0.195-4.877
    c5.123,0.272,10.761-1.557,14.774-4.833c0.584,0.542,1.109,1.126,1.575,1.744C32.694,44.604,32.27,45.103,31.805,45.603z"/>
  <path fill="#CFEDFC" d="M16.921,52.055c0,0.017,0.008,0.034,0.008,0.059c-0.017-0.025-0.034-0.042-0.051-0.067
    C16.896,52.055,16.913,52.055,16.921,52.055z"/>
  <path fill="#CFEDFC" d="M16.921,52.055c-0.008,0-0.025,0-0.043-0.009c-1.185-1.532-1.592-3.276-1.405-4.978
    c0.415,0.051,0.83,0.085,1.252,0.109C16.524,48.812,16.574,50.496,16.921,52.055z"/>
  <path fill="#CFEDFC" d="M19.089,40.972c-1.253,1.567-2.075,3.827-2.363,6.206c-0.423-0.024-0.837-0.059-1.252-0.109
    C15.719,44.722,17.082,42.462,19.089,40.972z"/>
  <path fill="#4EC1E0" d="M64.23,112.415c-8.128-10.993-22.138-0.271-21.339,10.758c-1.753-0.177-3.583,0.138-5.174,0.892
    c-5.162,1.896-6.088,9.383-2.488,13.828c2.52,3.11,6.729,2.878,10.063,1.427c2.533-1.102,3.98-3.468,4.453-6.043
    c0.383,0.205,0.775,0.395,1.181,0.547c4.994,1.881,10.126-0.317,13.287-4.442c1.768-2.308,2.7-4.988,2.841-7.705
    c0.051-0.979,0.006-1.961-0.149-2.932C66.546,116.511,65.652,114.339,64.23,112.415z M34.796,129.081
    c0.983-3.708,4.868-5.039,8.271-4.588c0.051,0.281,0.104,0.561,0.175,0.839c0.459,1.788,1.274,3.148,2.321,4.16
    c0.599,0.85,1.29,1.625,2.058,2.302c-0.763,2.09-2.471,3.671-5.186,4.479C38.057,137.576,33.631,133.479,34.796,129.081z
     M44.832,124.918c1.523,0.601,2.585,1.798,3.21,3.229c0.035,0.41,0.051,0.811,0.038,1.198c-0.695-0.343-1.33-0.787-1.883-1.345
    C45.617,127.036,45.157,125.997,44.832,124.918z M35.623,135.917c2.289,1.803,5.799,2.187,8.459,1.147
    c1.768-0.69,3.43-2.154,4.456-3.907C47.29,139.14,38.981,140.835,35.623,135.917z M49.91,131.728
    c0.002-0.038,0.001-0.076,0.002-0.113c4.768,0.825,10.806-1.599,14.425-5.484C61.717,131.489,55.763,135.088,49.91,131.728z
     M65.547,122.354c-2.555,5.431-10.237,8.924-15.724,7.613c-0.048-0.358-0.106-0.714-0.19-1.061
    c-0.124-0.513-0.299-0.975-0.496-1.416c-0.016-0.036-0.034-0.073-0.05-0.109c-0.958-2.057-2.657-3.337-4.611-3.905
    c-0.104-0.542-0.188-1.086-0.229-1.625c-0.285-3.612,1.269-6.671,3.579-9.145c1.01-1.055,2.159-1.949,3.387-2.602
    c5.644-2.997,11.943,1.185,13.869,6.538C65.746,118.49,65.858,120.452,65.547,122.354z M48.872,93.916
    c0.138-0.431,0.253-0.86,0.347-1.285c0.317-1.431,0.382-2.819,0.255-4.147c-0.83-8.707-10.373-14.718-18.129-11.584
    c-8.445,1.483-9.495,12.783-6.211,20.038C30.352,108.47,45.401,104.806,48.872,93.916z M25.777,84.591
    c2.301-7.568,11.281-8.865,17.18-4.95c3.969,2.634,5.525,7.52,4.923,12.062C42.328,102.39,21.611,98.29,25.777,84.591z
     M33.446,102.449c-3.861-0.798-6.361-4.418-7.645-7.878c-0.145-0.391-0.272-0.791-0.388-1.198c1.091,1.829,2.656,3.425,4.569,4.562
    c5.181,3.079,12.197,1.764,16.637-2.01C44.334,100.555,38.505,103.498,33.446,102.449z M34.662,54.442
    c1.102-1.772,1.475-3.604,1.319-5.369c-0.063-0.709-0.203-1.408-0.428-2.086c-0.352-1.059-0.894-2.067-1.571-2.997
    c1.552-2.331,2.55-4.957,2.802-7.772c0.128-1.419,0.076-2.883-0.2-4.383c-0.066-0.366-0.157-0.723-0.25-1.079
    c-1.819-6.973-8.444-12.084-15.002-14.212c-4.292-1.392-9.081-1.387-12.984,0.529c-14.98,3.416-6.979,31.997,7.947,35.401
    c0.714,2.937,2.425,5.425,5.432,6.465C25.771,60.338,32.428,58.032,34.662,54.442z M33.027,42.817
    c-0.141-0.152-0.29-0.297-0.438-0.444c0.571-0.527,1.105-1.086,1.597-1.678C33.853,41.424,33.465,42.134,33.027,42.817z
     M16.034,51.08c-0.175-0.048-0.348-0.107-0.52-0.164c-2.763-0.893-5.277-2.714-7.304-4.957c-1.058-1.171-2.073-2.625-2.978-4.25
    c2.468,3.222,5.74,5.178,9.564,5.879c0.431,0.079,0.867,0.146,1.311,0.192C15.951,49.021,15.927,50.171,16.034,51.08z
     M14.95,46.155c-5.457-1.112-9.626-5.27-11.507-11.225c-2.199-6.961,0.132-15.198,7.659-17.38
    c9.376-2.718,20.22,4.128,23.544,12.784c0.684,1.782,0.929,3.57,0.826,5.314c-0.797,2.245-2.231,4.146-4.039,5.708
    c-2.125-1.668-4.742-2.72-7.319-2.771c-2.096-0.806-3.781-0.068-5.061,1.435c-1.352,1.587-2.254,4.014-2.718,6.347
    C15.865,46.317,15.402,46.247,14.95,46.155z M30.176,42.341c-2.528,1.815-5.575,3.065-8.599,3.721
    c-1.38,0.299-2.71,0.411-3.991,0.382c0.358-2.075,1.191-3.996,2.451-5.312C23.304,38.941,27.258,39.963,30.176,42.341z
     M17.418,47.876c1.462,0.052,2.989-0.058,4.569-0.331c3.335-0.576,6.643-2.019,9.354-4.122c0.243,0.255,0.474,0.52,0.692,0.793
    c-2.296,2.946-5.497,5.294-8.885,6.565c-1.87,0.702-3.72,0.862-5.497,0.624C17.416,50.268,17.341,49.066,17.418,47.876z
     M18.486,52.784c2.946,0.165,6.113-0.654,9.392-2.812c1.932-1.271,3.64-2.792,5.034-4.511c0.715,1.178,1.182,2.45,1.33,3.72
    c-2.127,4.222-7.414,6.276-12.021,5.423C20.673,54.317,19.427,53.664,18.486,52.784z M19.113,54.943
    c0.099,0.065,0.19,0.135,0.292,0.199c4.265,2.647,10.905,0.938,14.359-2.608c-0.652,1.477-1.931,2.818-4.048,3.821
    C24.444,58.856,20.99,57.629,19.113,54.943z M59.595,16.395c0.02,0.059,0.046,0.108,0.068,0.165
    c1.407,3.781,5.739,3.827,8.581,1.412c1.98-1.683,2.482-4.08,2.083-6.404c-0.142-0.831-0.396-1.651-0.744-2.428
    c-1.157-2.58-3.307-4.648-5.501-4.903c-0.802-0.093-1.608,0.064-2.376,0.52c-3.232,2.858-2.989,7.514-2.502,10.132
    C59.299,15.398,59.428,15.902,59.595,16.395z M67.066,17.268c-1.979,1.449-3.886,1.451-5.204,0.301
    c0.79,0.128,1.675,0.075,2.65-0.202c1.818-0.516,3.384-1.754,4.513-3.328C68.798,15.297,68.189,16.446,67.066,17.268z
     M61.627,6.554c0.221-0.392,0.459-0.766,0.723-1.102c-0.06,0.077-0.114,0.162-0.172,0.242C61.983,5.966,61.798,6.251,61.627,6.554
    c3.13-2.536,6.58,0.924,7.347,4.771c-0.693,1.792-1.838,3.328-3.686,4.437c-1.642,0.984-3.2,0.986-4.496,0.353
    c-0.178-0.376-0.326-0.791-0.438-1.251C59.736,12.314,60.265,8.971,61.627,6.554z M37.14,14.191
    c0.417,0.659,0.92,1.241,1.482,1.752c3.719,3.381,10.14,3.449,13.18-1.147c1.513-2.287,1.45-4.843,0.492-7.147
    c-0.312-0.75-0.722-1.469-1.201-2.147c-1.036-1.467-2.401-2.729-3.877-3.592c-3.433-2.006-7.424-1.074-9.671,1.48
    c-2.943,1.929-2.264,7.437-0.648,10.385C36.976,13.919,37.057,14.06,37.14,14.191z M51.775,9.479c0.276,1.33,0.2,2.706-0.389,3.999
    c-1.791,3.935-6.287,4.615-9.809,3.12c1.549,0.063,3.198-0.278,4.88-1.095C48.972,14.283,50.805,12.049,51.775,9.479z
     M39.709,3.314c0.209-0.114,0.419-0.229,0.636-0.341c0.05-0.025,0.064-0.07,0.065-0.115c1.831-1.03,4.104-1.108,6.625,0.304
    c1.606,0.899,3.043,2.39,3.94,4.112c-0.334,2.301-1.406,4.441-3.627,6.381c-2.633,2.301-5.541,2.528-8.108,1.487
    c-0.246-0.216-0.479-0.445-0.696-0.69c-1.313-1.49-2.083-3.476-2.257-5.452C36.867,6.579,38.068,4.537,39.709,3.314z
     M66.646,40.355c-1.416-1.202-3.84-1.846-5.746-1.307c-0.214,0.06-0.419,0.137-0.617,0.227c-1.911,2.094-1.238,5.013-1.023,6.327
    c0.062,0.375,0.14,0.745,0.245,1.106c0.106,0.368,0.229,0.73,0.381,1.079c1.265,2.922,3.903,3.343,6.266,1.341
    c1.729-1.463,2.631-3.458,2.408-5.364c-0.064-0.553-0.227-1.098-0.489-1.62C67.75,41.505,67.287,40.899,66.646,40.355z
     M64.769,48.58c-1.73,1.316-2.999,0.17-3.734-1.329c0.778,0.168,1.604,0.194,2.465,0.042c1.369-0.242,2.577-0.825,3.54-1.655
    C66.608,46.761,65.764,47.823,64.769,48.58z M63.711,46.227c-1.068,0.299-2.12,0.247-3.102-0.048
    c-0.008-0.027-0.019-0.056-0.027-0.083c-0.463-1.538-0.579-3.351-0.283-5.036c1.689-0.927,3.374-1.084,5.287,0.122
    c1.057,0.666,1.572,1.516,1.713,2.417C66.494,44.822,65.362,45.766,63.711,46.227z M68.53,51.437
    c-0.043-0.155-0.19-0.28-0.41-0.239c-2.531,0.468-4.705,1.708-6.483,3.415c-0.288-0.463-0.592-0.915-0.932-1.335
    c-2.866-3.555-7.743-4.691-11.869-3.556c-0.037-0.036-0.084-0.06-0.141-0.039c-0.19,0.07-0.355,0.167-0.536,0.248
    c-2.715,1.225-4.312,3.669-5.038,6.521c-0.676,2.661-0.604,5.653-0.018,8.291c0.185,0.833,0.419,1.629,0.7,2.369
    c0.131,0.344,0.268,0.681,0.418,0.998c2.355,5.001,8.196,7.197,12.941,5.387c2.535,6.073,9.379,9.696,16.092,8.473
    c4.862-0.886,8.293-4.631,10.043-9.078c0.438-1.112,0.765-2.266,0.988-3.432c0.335-1.756,0.433-3.535,0.257-5.223
    C83.694,56.077,76.025,50.289,68.53,51.437z M45.974,68.61c3.064,1.704,6.85,2.293,10.315,1.673
    c0.107,0.747,0.263,1.472,0.486,2.166C53.04,73.982,48.491,71.93,45.974,68.61z M56.136,68.2c0.002,0.317,0.003,0.634,0.022,0.947
    c-0.152,0.036-0.311,0.063-0.467,0.094c-0.798,0.155-1.645,0.251-2.561,0.267c-3.424,0.061-6.216-1.278-8.548-3.316
    c-1.926-4.492-0.959-9.519,1.739-13.394c4.4-3.261,10.576-2.73,14.324,2.586c0.036,0.051,0.065,0.106,0.1,0.159
    C57.741,58.96,56.116,63.785,56.136,68.2z M57.399,67.495c-0.116-4.228,1.412-7.963,3.985-10.855
    c1.387,2.75,1.512,6.081,0.634,9.08c-1.297,1.361-2.767,2.384-4.525,3.025C57.445,68.33,57.41,67.914,57.399,67.495z
     M57.691,69.952c1.093-0.309,2.136-0.744,3.093-1.313c-0.341,0.594-0.726,1.158-1.154,1.676c-0.285,0.344-0.584,0.646-0.896,0.918
    c-0.345-0.391-0.686-0.788-1.026-1.188C57.7,70.015,57.697,69.983,57.691,69.952z M71.365,80.702
    c-5.867,0.688-10.651-2.939-12.779-7.873c0.011-0.006,0.021-0.014,0.033-0.021c3.032,3.206,6.695,5.544,11.572,5.914
    c3.535,0.268,7.022-0.975,9.971-3.069C77.99,78.358,74.894,80.289,71.365,80.702z M82.495,71.567
    c-3.189,3.373-7.185,5.693-12.304,5.803c-4.744,0.103-7.859-2.261-10.62-5.216c0.348-0.271,0.683-0.567,1.001-0.896
    c1.283-1.325,2.158-2.914,2.69-4.616c0.323-1.037,0.523-2.111,0.589-3.205c0.162-2.648-0.413-5.362-1.592-7.711
    c0.382-0.368,0.782-0.721,1.199-1.056c0.126,0.023,0.263,0.014,0.41-0.063c5.557-2.943,10.969-2.621,15.597,1.926
    c2.735,2.688,3.971,6.562,3.93,10.318C83.376,68.471,83.055,70.066,82.495,71.567z M153.509,268.506
    c6.4-1.217,11.534-8.147,11.086-14.642c-0.029-0.43-0.083-0.855-0.162-1.279c-0.186-0.995-0.479-1.936-0.854-2.824
    c-2.045-4.846-6.654-8.559-11.702-8.545c-10.855,0.032-14.03,9.476-14.283,15.085c-0.006,0.126-0.023,0.247-0.025,0.372
    c-0.007,0.324,0.006,0.642,0.027,0.957C138.106,265.201,146.523,269.832,153.509,268.506z M138.619,255.765
    c-0.026-5.655,4.145-10.522,9.171-12.819c7.135-1.038,14.457,2.524,15.365,10.7c0.042,0.376,0.061,0.749,0.064,1.119
    c-0.414,1.54-1.168,3.015-2.426,4.417c-2.584,2.88-6.623,4.105-10.377,4.226c-3.935,0.123-7.896-1.182-10.695-3.998
    c-0.251-0.252-0.483-0.511-0.699-0.776C138.77,257.708,138.624,256.749,138.619,255.765z M139.547,260.13
    c2.498,2.53,6.04,4.177,10.286,4.423c5.308,0.311,10.04-2.145,12.717-5.965c-1.471,4.134-5.206,7.463-9.407,8.589
    C147.393,268.718,141.712,265.226,139.547,260.13z M166.53,287.628c1.543-1.922,2.31-4.355,2.315-6.782
    c0.002-0.977-0.119-1.949-0.366-2.891c-0.413-1.566-1.165-3.036-2.271-4.255c-5.03-5.54-15.126-2.014-17.171,4.605
    c-0.101,0.326-0.161,2.318-0.283,3.212c-0.046,0.333-0.073,0.666-0.084,0.999c-0.07,2.051,0.517,4.081,2.033,5.761
    C154.891,292.917,162.702,292.398,166.53,287.628z M152.829,275.207c3.744-3.223,9.047-4.427,12.876-0.186
    c1.269,1.406,1.83,3.212,1.879,5.07c-1.647,3.195-4.395,5.347-8.94,5.561c-3.39,0.158-6.479-1.066-8.863-3.145
    C149.876,279.934,151.143,277.252,152.829,275.207z M152.037,287.956c-1.377-1.228-2.053-2.73-2.221-4.317
    c2.35,2.008,5.382,3.199,8.827,3.234c3.403,0.034,6.464-1.439,8.592-3.764c-0.297,1.174-0.766,2.292-1.364,3.256
    C163.014,290.972,155.923,291.419,152.037,287.956z M174.687,301.482c-0.425-0.633-0.96-1.221-1.604-1.723
    c-2.459-1.924-6.214-1.843-7.507,0.969c-0.151,0.254-0.288,0.535-0.396,0.881c-0.229,0.723-0.231,1.491-0.101,2.245
    c0.075,0.437,0.195,0.868,0.345,1.284c0.129,0.354,0.276,0.697,0.436,1.022c1.423,2.885,4.995,4.868,7.835,2.608
    c1.923-1.528,2.389-3.617,1.817-5.549C175.334,302.618,175.056,302.032,174.687,301.482z M166.074,302.083
    c0.689-1.118,1.466-2.222,2.878-2.407c1.21-0.157,2.392,0.417,3.351,1.094c0.843,0.596,1.464,1.363,1.829,2.198
    c-0.714,1.252-1.998,2.088-4.066,2.264c-1.29,0.109-2.568-0.147-3.728-0.673C166.059,303.728,165.952,302.87,166.074,302.083z
     M173.103,307.708c-2.215,2.055-4.83,0.491-6.178-1.844c1.077,0.39,2.274,0.566,3.578,0.477c1.61-0.11,2.991-0.778,3.997-1.777
    C174.529,305.673,174.094,306.79,173.103,307.708z M183.898,243.931c-0.325-1.079-0.844-2.127-1.484-3.08
    c-0.823-1.225-1.835-2.294-2.872-3.058c-2.038-1.501-4.993-2.069-7.057-0.987c-0.079-0.072-0.461,0.229-0.552,0.345
    c-0.858,0.638-1.502,1.626-1.743,3.053c-0.001,0.01,0.001,0.02,0,0.028c-0.62,1.534-0.986,3.214-0.999,4.864
    c-0.005,0.573,0.032,1.143,0.118,1.699c0.228,1.479,0.784,2.875,1.767,4.04c3.309,3.916,10.328,2.638,12.572-1.853
    C184.437,247.402,184.41,245.63,183.898,243.931z M170.67,240.831c0.114,0.006,0.163-2.455,3.474-3.227
    c1.526-0.355,3.112,0.356,4.314,1.164c1.712,1.15,3.219,3.073,3.912,5.167c-0.571,2.562-2.589,4.381-6.218,4.527
    c-2.503,0.101-4.463-0.772-5.942-2.198C169.94,244.501,170.139,242.586,170.67,240.831z M182.628,247.646
    c-1.009,4.498-8.413,5.554-11.019,2.125c-0.423-0.557-0.74-1.182-0.98-1.844c1.594,1.132,3.585,1.793,5.958,1.734
    c2.747-0.069,4.895-1.317,6.177-3.144C182.752,246.896,182.712,247.275,182.628,247.646z M172.103,223.353
    c1.251,2.256,5.376,2.75,6.852,0.472c0.775-1.198,0.872-2.667,0.527-4.05c-0.185-0.746-0.497-1.464-0.902-2.105
    c-1.149-1.818-3.036-2.99-4.827-2.229c-0.315,0.134-0.626,0.334-0.931,0.596c-0.396,0.541-0.717,1.141-0.96,1.769
    c-0.273,0.71-0.441,1.457-0.485,2.209c-0.031,0.524,0,1.048,0.096,1.561C171.588,222.19,171.79,222.79,172.103,223.353z
     M178.142,222.797c-0.997,2.299-4.359,1.384-5.391-0.409c0.867,0.371,1.879,0.508,2.967,0.332c1.129-0.183,2.033-0.669,2.709-1.333
    C178.414,221.878,178.332,222.359,178.142,222.797z M172.468,218.061c0.109-0.018,0.217-0.062,0.307-0.163
    c1.457-1.637,3.006-2.081,4.448-0.144c0.445,0.599,0.806,1.357,1.015,2.153c-0.523,0.938-1.575,1.493-2.592,1.732
    c-1.332,0.311-2.469,0.031-3.331-0.619C172.158,220.079,172.219,219.041,172.468,218.061z"/>
  <path fill="#FFFFFF" d="M30.523,29.528c0.418,0.47,1.19-0.024,1.028-0.599c-1.628-5.762-13.332-14.198-18.843-8.772
    c-0.05,0.049,0.003,0.123,0.065,0.11C19.97,18.87,26.08,24.537,30.523,29.528z"/>
  <path fill="#FFFFFF" d="M29.533,44.049c-2.382-2.008-4.627-2.092-7.505-1.556c-0.167,0.032-0.13,0.315,0.041,0.299
    c2.33-0.214,4.862,1.581,6.399,3.142c1.479,1.502,2.093,3.5,3.423,5.086c0.238,0.284,0.705,0.111,0.796-0.21
    C33.416,48.246,31.38,45.608,29.533,44.049z"/>
  <path fill="#FFFFFF" d="M46.07,5.402c-1.169-0.806-2.33-1.001-3.661-1.361c-0.084-0.023-0.146,0.109-0.061,0.145
    c2.159,0.919,4.077,2.803,5.532,4.599c0.498,0.616,1.37-0.261,0.87-0.87C47.954,6.946,47.104,6.115,46.07,5.402z"/>
  <path fill="#FFFFFF" d="M63.25,7.071c-0.491-0.206-0.751,0.558-0.346,0.822c0.814,0.53,1.485,1.231,2.054,2.015
    c0.589,0.812,0.921,1.9,1.65,2.585c0.302,0.285,0.788,0.082,0.802-0.332c0.036-1.076-0.763-2.246-1.423-3.047
    C65.23,8.195,64.348,7.53,63.25,7.071z"/>
  <path fill="#FFFFFF" d="M56.355,57.035c0.437,0.385,1.179,0.023,1.006-0.586c-0.35-1.234-1.559-2.18-2.603-2.839
    c-1.238-0.78-2.504-0.856-3.904-1.003c-0.22-0.023-0.255,0.322-0.05,0.377c1.05,0.279,2.125,0.934,3.031,1.534
    C54.878,55.207,55.45,56.237,56.355,57.035z"/>
  <path fill="#FFFFFF" d="M69.565,54.186c-0.4-0.107-0.548,0.475-0.169,0.613c2.981,1.081,5.283,3.121,7.062,5.71
    c1.523,2.216,2.107,4.76,3.315,7.1c0.363,0.704,1.628,0.408,1.541-0.417C80.655,60.968,75.397,55.739,69.565,54.186z"/>
  <path fill="#FFFFFF" d="M63.945,42.915c-0.462-0.392-1.057-0.593-1.661-0.526c-0.261,0.029-0.366,0.433-0.066,0.493
    c0.48,0.098,0.813,0.469,1.13,0.82c0.314,0.347,0.437,0.944,0.934,1.064c0.256,0.062,0.464-0.08,0.553-0.314
    C65.055,43.877,64.337,43.249,63.945,42.915z"/>
  <path fill="#FFFFFF" d="M41.1,80.884c-2.06-1.409-4.862-2.03-7.262-1.298c-0.276,0.084-0.329,0.561,0,0.612
    c2.103,0.325,4.055,0.803,5.873,1.955c1.149,0.728,2.092,1.754,2.858,2.866c0.572,0.831,0.798,1.59,1.606,2.212
    c0.317,0.244,0.899-0.004,0.961-0.392C45.527,84.41,42.915,82.126,41.1,80.884z"/>
  <path fill="#FFFFFF" d="M53.818,111.297c-0.372,0.012-0.49,0.621-0.092,0.676c2.435,0.337,4.128,2.178,5.346,4.184
    c1.236,2.036,1.142,4.068,1.804,6.222c0.135,0.439,0.844,0.627,1.064,0.139c1.059-2.352-0.668-5.593-1.98-7.515
    C58.559,112.95,56.402,111.214,53.818,111.297z"/>
  <path fill="#FFFFFF" d="M42.207,126.786c-0.878-0.318-1.863-0.332-2.782-0.275c-0.481,0.029-0.473,0.698,0,0.74
    c0.787,0.072,1.508,0.252,2.25,0.513c0.687,0.242,1.256,0.76,1.982,0.843c0.355,0.041,0.555-0.414,0.394-0.688
    C43.676,127.282,42.877,127.028,42.207,126.786z"/>
  <path fill="#FFFFFF" d="M161.382,254.725c-0.043-2.583-2.132-4.993-4.011-6.57c-2.204-1.851-4.645-2.466-7.384-3.011
    c-0.355-0.07-0.481,0.409-0.148,0.535c2.188,0.832,4.409,2.314,6.191,3.818c1.918,1.617,2.493,3.62,3.7,5.675
    C160.172,255.923,161.397,255.615,161.382,254.725z"/>
  <path fill="#FFFFFF" d="M158.952,274.079c-0.599-0.125-1.026,0.719-0.434,1.026c1.177,0.611,2.167,1.503,3.075,2.455
    c0.463,0.485,0.821,1.048,1.146,1.63c0.363,0.652,0.502,1.239,1.128,1.682c0.467,0.329,1.13-0.014,1.273-0.518
    c0.394-1.395-1.029-3.016-1.905-3.978C162.093,275.118,160.588,274.418,158.952,274.079z"/>
  <path fill="#FFFFFF" d="M178.259,240.914c-0.788-1.006-2.045-1.578-3.283-1.748c-0.412-0.057-0.594,0.506-0.176,0.638
    c1.121,0.352,2.049,1.024,2.764,1.954c0.335,0.438,0.575,0.943,0.761,1.456c0.177,0.493,0.168,0.912,0.635,1.202
    c0.16,0.099,0.333,0.021,0.435-0.114C180.075,243.393,178.828,241.641,178.259,240.914z"/>
  <path fill="#FFFFFF" d="M174.705,218.21c0.07,0.044,0.14,0.09,0.208,0.137c0.193,0.131,0.068-0.078,0.144,0.199
    c0.057,0.206,0.247,0.367,0.362,0.546c0.097,0.149,0.196,0.296,0.283,0.452c0.147,0.263,0.317,0.419,0.556,0.598
    c0.399,0.3,0.972-0.105,0.965-0.553c-0.009-0.57-0.328-1.066-0.767-1.424c-0.219-0.177-0.495-0.418-0.792-0.418
    c-0.302,0-0.037,0.076-0.25-0.023c-0.141-0.066-0.285-0.123-0.43-0.179C174.584,217.388,174.375,217.997,174.705,218.21z"/>
  <path fill="#FFFFFF" d="M169.809,301.363c-0.856-0.022-1.079,1.389-0.206,1.521c0.152,0.022,0.206,0.045,0.25,0.203
    c0.281,1.023,1.834,0.592,1.584-0.436C171.253,301.888,170.583,301.383,169.809,301.363z"/>
</g>
<g>
</g>
<g>
</g>
<g>
</g>
<g>
</g>
<g>
</g>
<g>
</g>
<g>
</g>
<g>
</g>
</svg>
