<?xml version="1.0" encoding="UTF-8" standalone="no"?>
<!-- Creator: CorelDRAW X6 -->

<svg
   xmlns:dc="http://purl.org/dc/elements/1.1/"
   xmlns:cc="http://creativecommons.org/ns#"
   xmlns:rdf="http://www.w3.org/1999/02/22-rdf-syntax-ns#"
   xmlns:svg="http://www.w3.org/2000/svg"
   xmlns="http://www.w3.org/2000/svg"
   xmlns:sodipodi="http://sodipodi.sourceforge.net/DTD/sodipodi-0.dtd"
   xmlns:inkscape="http://www.inkscape.org/namespaces/inkscape"
   xml:space="preserve"
   width="450"
   height="450"
   version="1.1"
   style="fill-rule:evenodd"
   viewBox="0 0 4515 4515"
   id="svg2"
   inkscape:version="0.48.4 r9939"
   sodipodi:docname="medal number one.svg"><title
     id="title3786">medal number one</title><metadata
     id="metadata41"><rdf:RDF><cc:Work
         rdf:about=""><dc:format>image/svg+xml</dc:format><dc:type
           rdf:resource="http://purl.org/dc/dcmitype/StillImage" /><dc:title>medal number one</dc:title><dc:date>08/20/2013</dc:date><dc:creator><cc:Agent><dc:title>edited by Paul Sherman</dc:title></cc:Agent></dc:creator><dc:rights><cc:Agent><dc:title>PD</dc:title></cc:Agent></dc:rights><dc:publisher><cc:Agent><dc:title>WPClipart</dc:title></cc:Agent></dc:publisher><dc:subject><rdf:Bag><rdf:li>medal</rdf:li><rdf:li>ribbon</rdf:li><rdf:li>award</rdf:li><rdf:li>number</rdf:li><rdf:li>one</rdf:li></rdf:Bag></dc:subject><cc:license
           rdf:resource="http://creativecommons.org/licenses/publicdomain/" /></cc:Work><cc:License
         rdf:about="http://creativecommons.org/licenses/publicdomain/"><cc:permits
           rdf:resource="http://creativecommons.org/ns#Reproduction" /><cc:permits
           rdf:resource="http://creativecommons.org/ns#Distribution" /><cc:permits
           rdf:resource="http://creativecommons.org/ns#DerivativeWorks" /></cc:License></rdf:RDF></metadata><sodipodi:namedview
     pagecolor="#ffffff"
     bordercolor="#666666"
     borderopacity="1"
     objecttolerance="10"
     gridtolerance="10"
     guidetolerance="10"
     inkscape:pageopacity="0"
     inkscape:pageshadow="2"
     inkscape:window-width="1366"
     inkscape:window-height="706"
     id="namedview39"
     showgrid="false"
     fit-margin-top="0"
     fit-margin-left="0"
     fit-margin-right="0"
     fit-margin-bottom="0"
     inkscape:zoom="0.5"
     inkscape:cx="203.23476"
     inkscape:cy="254.09004"
     inkscape:window-x="0"
     inkscape:window-y="27"
     inkscape:window-maximized="1"
     inkscape:current-layer="svg2" /><defs
     id="defs4"><style
       type="text/css"
       id="style6">
   
    .fil2 {fill:#00AFDB}
    .fil1 {fill:#00CCFF}
    .fil4 {fill:#963818}
    .fil3 {fill:#CC3300}
    .fil5 {fill:#CF4517}
    .fil0 {fill:#E6E6E6}
    .fil6 {fill:#FFCC00}
    .fil9 {fill:#17346E;fill-rule:nonzero}
    .fil7 {fill:#B38730;fill-rule:nonzero}
    .fil11 {fill:#BA8C2F;fill-rule:nonzero}
    .fil8 {fill:#BF9A07;fill-rule:nonzero}
    .fil10 {fill:#CC9933;fill-rule:nonzero}
   
  </style></defs><rect
     style="fill:#ffffff;fill-opacity:1"
     y="0"
     x="0"
     id="rect10"
     height="4515"
     width="4515"
     class="fil0" /><rect
     style="fill:#00ccff"
     id="rect12"
     ry="1079.0206"
     rx="1079.0206"
     height="5229.874"
     width="5229.874"
     y="-385.64832"
     x="-358.15533"
     class="fil1" /><path
     style="fill:#00afdb"
     inkscape:connector-curvature="0"
     id="path14"
     d="m 4085.8005,522.39572 -1827.5822,3899.41688 902.2969,422.4128 633.6193,0 c 593.3895,0 1079.0207,-485.6311 1079.0207,-1079.0206 l 0,-2873.55701 -787.3547,-369.25207 z"
     class="fil2" /><path
     style="fill:#cc3300"
     inkscape:connector-curvature="0"
     id="path16"
     d="m 1142.1885,-181.5547 2230.6228,0 338.3086,251.360045 192.8674,208.676275 c 3.1618,25.2941 6.3235,50.58819 6.3235,77.46316 l 0,0 c 0,295.62465 -241.8747,537.49942 -537.4995,537.49942 l -2230.6228,0 c -295.62477,0 -537.49953,-241.87477 -537.49953,-537.49942 l 0,0 c 0,-37.94114 3.16177,-74.3014 11.06621,-109.08078 L 758.03447,126.71706 1142.1885,-181.5547 z"
     class="fil3" /><path
     style="fill:#963818"
     inkscape:connector-curvature="0"
     id="path18"
     d="m 3383.8775,891.86345 241.8748,0 0,-1003.85939 -252.941,-69.55876 -36.3603,0 c -3.1618,0 -7.9043,0 -11.0661,0 80.6249,387.3158 94.8529,739.85221 58.4926,1073.41815 z"
     class="fil4" /><path
     style="fill:#963818"
     inkscape:connector-curvature="0"
     id="path20"
     d="m 1131.1223,891.86345 -241.87475,0 0,-1003.85939 252.94095,-69.55876 36.3603,0 c 3.1618,0 7.9043,0 11.0661,0 -80.6249,387.3158 -94.8529,739.85221 -58.4926,1073.41815 z"
     class="fil4" /><path
     style="fill:#cf4517"
     inkscape:connector-curvature="0"
     id="path22"
     d="M 1075.7915,3169.9127 1802.9967,2953.332 C 1290.7912,1884.6566 890.82844,1024.6574 1142.1885,-183.13559 723.25509,-123.06211 424.46857,53.996543 245.82904,351.20214 109.87329,1426.2011 599.94631,2561.2735 1075.7915,3169.9127 z"
     class="fil5" /><path
     style="fill:#cf4517"
     inkscape:connector-curvature="0"
     id="path24"
     d="M 3439.2083,3169.9127 2712.0031,2953.332 c 512.2055,-1068.6754 912.1683,-1928.6746 660.8082,-3136.46759 418.9334,60.07348 717.72,237.132133 896.3595,534.33773 135.9558,1074.99896 -354.1173,2210.07136 -829.9625,2818.71056 z"
     class="fil5" /><circle
     d="m 3081,2889 c 0,455.0826 -368.9174,824 -824,824 -455.0826,0 -824,-368.9174 -824,-824 0,-455.0826 368.9174,-824 824,-824 455.0826,0 824,368.9174 824,824 z"
     style="fill:#ffff00"
     sodipodi:ry="824"
     sodipodi:rx="824"
     sodipodi:cy="2889"
     sodipodi:cx="2257"
     id="circle26"
     r="824"
     cy="2889"
     cx="2257"
     class="fil6"
     transform="matrix(2.0113342,0,0,2.0113342,-2283.087,-2582.3392)" /><path
     style="fill:#b38730;fill-rule:nonzero"
     inkscape:connector-curvature="0"
     id="path28"
     d="m 2260.5169,1502.6805 c 496.7996,0 945.3271,201.1335 1271.1633,526.9696 307.7341,309.7454 502.8335,732.1257 518.9242,1198.7551 l -275.5529,0 c -18.1018,-390.1987 -185.0427,-740.1709 -444.5048,-999.633 -273.5415,-273.5415 -653.6836,-444.5048 -1070.0298,-444.5048 -418.3575,0 -796.4884,168.9519 -1070.0296,444.5048 -261.47346,257.4507 -430.42568,609.4343 -450.539,999.633 l -275.55285,0 C 482.49757,2759.7644 679.6082,2339.3955 989.35365,2029.6501 1315.1899,1703.814 1763.7175,1502.6805 2260.5169,1502.6805 z"
     class="fil7" /><g
     id="_664248832"
     transform="matrix(2.0113342,0,0,2.0113342,-2283.087,-2582.3392)"><path
       style="fill:#cc9933;fill-rule:nonzero"
       inkscape:connector-curvature="0"
       id="path35"
       d="m 2257,1995 c 247,0 470,100 632,262 162,162 262,385 262,632 0,247 -100,470 -262,632 -162,162 -385,262 -632,262 -247,0 -470,-100 -632,-262 -162,-162 -262,-385 -262,-632 0,-247 100,-470 262,-632 162,-162 385,-262 632,-262 z m 532,362 c -136,-136 -325,-221 -532,-221 -208,0 -396,84 -532,221 -136,136 -221,325 -221,532 0,208 84,396 221,532 136,136 324,221 532,221 208,0 396,-84 532,-221 136,-136 221,-324 221,-532 0,-208 -84,-396 -221,-532 z"
       class="fil10" /><path
       style="fill:#ba8c2f;fill-rule:nonzero"
       inkscape:connector-curvature="0"
       id="path37"
       d="m 3152,2889 c 0,247 -100,470 -262,632 -162,162 -385,262 -632,262 -247,0 -470,-100 -632,-262 -162,-162 -262,-385 -262,-632 l 141,0 c 0,208 84,396 221,532 136,136 324,221 532,221 208,0 396,-84 532,-221 136,-136 221,-324 221,-532 l 141,0 z"
       class="fil11" /></g><text
     xml:space="preserve"
     style="font-size:1380.29992676px;font-style:normal;font-variant:normal;font-weight:normal;font-stretch:normal;line-height:125%;letter-spacing:0px;word-spacing:0px;fill:#d45500;fill-opacity:1;fill-rule:evenodd;stroke:none;font-family:Meera;-inkscape-font-specification:Meera"
     x="1264.0063"
     y="3336.1924"
     id="text3039-7"
     sodipodi:linespacing="125%"><tspan
       sodipodi:role="line"
       id="tspan3041-4"
       x="1264.0063"
       y="3336.1924"
       style="font-style:normal;font-variant:normal;font-weight:bold;font-stretch:condensed;fill:#d45500;font-family:PT Sans Narrow;-inkscape-font-specification:PT Sans Narrow Bold Condensed">TAX</tspan></text>
<text
     xml:space="preserve"
     style="font-size:1380.30004883px;font-style:normal;font-variant:normal;font-weight:normal;font-stretch:normal;line-height:125%;letter-spacing:0px;word-spacing:0px;fill:#000000;fill-opacity:1;stroke:none;font-family:Meera;-inkscape-font-specification:Meera"
     x="1236.4045"
     y="3330.2542"
     id="text3039"
     sodipodi:linespacing="125%"><tspan
       sodipodi:role="line"
       id="tspan3041"
       x="1236.4045"
       y="3330.2542"
       style="font-style:normal;font-variant:normal;font-weight:bold;font-stretch:condensed;font-family:PT Sans Narrow;-inkscape-font-specification:PT Sans Narrow Bold Condensed">TAX</tspan></text>
<text
     xml:space="preserve"
     style="font-size:578.32788086px;font-style:normal;font-variant:normal;font-weight:bold;font-stretch:normal;line-height:125%;letter-spacing:0px;word-spacing:0px;fill:#aa4400;fill-opacity:1;fill-rule:evenodd;stroke:none;font-family:Waree;-inkscape-font-specification:Waree Bold"
     x="1048.8149"
     y="3864.6084"
     id="text3076-9"
     sodipodi:linespacing="125%"><tspan
       sodipodi:role="line"
       id="tspan3078-8"
       x="1048.8149"
       y="3864.6084">WORLD</tspan></text>
<text
     xml:space="preserve"
     style="font-size:578.32794189px;font-style:normal;font-variant:normal;font-weight:bold;font-stretch:normal;line-height:125%;letter-spacing:0px;word-spacing:0px;fill:#000000;fill-opacity:1;stroke:none;font-family:Waree;-inkscape-font-specification:Waree Bold"
     x="1025.0156"
     y="3871.5684"
     id="text3076"
     sodipodi:linespacing="125%"><tspan
       sodipodi:role="line"
       id="tspan3078"
       x="1025.0156"
       y="3871.5684">WORLD</tspan></text>
<text
     xml:space="preserve"
     style="font-size:474.76913452px;font-style:normal;font-weight:bold;line-height:125%;letter-spacing:0px;word-spacing:0px;fill:#aa4400;fill-opacity:1;fill-rule:evenodd;stroke:none;font-family:Sans;-inkscape-font-specification:Sans Bold"
     x="1732.1433"
     y="4337.2998"
     id="text3101-1"
     sodipodi:linespacing="125%"><tspan
       sodipodi:role="line"
       id="tspan3103-7"
       x="1732.1433"
       y="4337.2998">2014</tspan></text>
<text
     xml:space="preserve"
     style="font-size:474.76916504px;font-style:normal;font-weight:bold;line-height:125%;letter-spacing:0px;word-spacing:0px;fill:#000000;fill-opacity:1;stroke:none;font-family:Sans;-inkscape-font-specification:Sans Bold"
     x="1723.1876"
     y="4339.6123"
     id="text3101"
     sodipodi:linespacing="125%"><tspan
       sodipodi:role="line"
       id="tspan3103"
       x="1723.1876"
       y="4339.6123">2014</tspan></text>
</svg>