<?xml version="1.0" encoding="UTF-8" standalone="no"?>
<!-- Created with Inkscape (http://www.inkscape.org/) -->

<svg
   xmlns:dc="http://purl.org/dc/elements/1.1/"
   xmlns:cc="http://creativecommons.org/ns#"
   xmlns:rdf="http://www.w3.org/1999/02/22-rdf-syntax-ns#"
   xmlns:svg="http://www.w3.org/2000/svg"
   xmlns="http://www.w3.org/2000/svg"
   xmlns:sodipodi="http://sodipodi.sourceforge.net/DTD/sodipodi-0.dtd"
   xmlns:inkscape="http://www.inkscape.org/namespaces/inkscape"
   width="48px"
   height="48px"
   id="svg3194"
   version="1.1"
   inkscape:version="0.48.4 r9939"
   sodipodi:docname="New document 6">
  <defs
     id="defs3196" />
  <sodipodi:namedview
     id="base"
     pagecolor="#ffffff"
     bordercolor="#666666"
     borderopacity="1.0"
     inkscape:pageopacity="0.0"
     inkscape:pageshadow="2"
     inkscape:zoom="4.9497475"
     inkscape:cx="23.929479"
     inkscape:cy="15.437529"
     inkscape:current-layer="layer1"
     showgrid="true"
     inkscape:grid-bbox="true"
     inkscape:document-units="px"
     inkscape:window-width="1366"
     inkscape:window-height="706"
     inkscape:window-x="0"
     inkscape:window-y="27"
     inkscape:window-maximized="1" />
  <metadata
     id="metadata3199">
    <rdf:RDF>
      <cc:Work
         rdf:about="">
        <dc:format>image/svg+xml</dc:format>
        <dc:type
           rdf:resource="http://purl.org/dc/dcmitype/StillImage" />
        <dc:title></dc:title>
      </cc:Work>
    </rdf:RDF>
  </metadata>
  <g
     id="layer1"
     inkscape:label="Layer 1"
     inkscape:groupmode="layer">
    <g
       id="g3255"
       transform="matrix(0.88214887,0,0,0.88214887,189.46464,-208.72489)">
      <rect
         class="fil0"
         width="41.438854"
         height="41.438854"
         id="rect10"
         x="-207.90919"
         y="243.30728"
         style="fill:#ffffff;fill-opacity:1;fill-rule:evenodd" />
      <rect
         class="fil1"
         x="-211.19637"
         y="239.76779"
         width="48"
         height="48"
         rx="9.9032955"
         ry="9.9032955"
         id="rect12"
         style="fill:#00ccff;fill-rule:evenodd" />
      <path
         class="fil3"
         d="m -195.77015,245.50625 17.16075,0 2.6027,1.93378 1.48377,1.6054 c 0.0243,0.19459 0.0487,0.38919 0.0487,0.59594 l 0,0 c 0,2.27432 -1.8608,4.13512 -4.13512,4.13512 l -17.16075,0 c -2.27431,0 -4.13512,-1.8608 -4.13512,-4.13512 l 0,0 c 0,-0.29189 0.0243,-0.57162 0.0851,-0.83918 l 1.09459,-0.92433 2.95539,-2.37161 z"
         id="path16"
         inkscape:connector-curvature="0"
         style="fill:#cc3300;fill-rule:evenodd" />
      <path
         class="fil4"
         d="m -178.52426,253.76433 1.8608,0 0,-7.72295 -1.94594,-0.53513 -0.27973,0 c -0.0243,0 -0.0608,0 -0.0851,0 0.62027,2.97972 0.72973,5.69187 0.45,8.25808 z"
         id="path18"
         inkscape:connector-curvature="0"
         style="fill:#963818;fill-rule:evenodd" />
      <path
         class="fil4"
         d="m -195.85528,253.76433 -1.86081,0 0,-7.72295 1.94594,-0.53513 0.27973,0 c 0.0243,0 0.0608,0 0.0851,0 -0.62026,2.97972 -0.72972,5.69187 -0.44999,8.25808 z"
         id="path20"
         inkscape:connector-curvature="0"
         style="fill:#963818;fill-rule:evenodd" />
      <path
         class="fil5"
         d="m -196.28096,271.28994 5.59458,-1.66621 c -3.94053,-8.22159 -7.01755,-14.83778 -5.08377,-24.12964 -3.22296,0.46216 -5.5216,1.82432 -6.89592,4.1108 -1.04594,8.27024 2.72431,17.00264 6.38511,21.68505 z"
         id="path22"
         inkscape:connector-curvature="0"
         style="fill:#cf4517;fill-rule:evenodd" />
      <path
         class="fil5"
         d="m -178.09859,271.28994 -5.59457,-1.66621 c 3.94052,-8.22159 7.01754,-14.83778 5.08376,-24.12964 3.22296,0.46216 5.5216,1.82432 6.89592,4.1108 1.04595,8.27024 -2.72431,17.00264 -6.38511,21.68505 z"
         id="path24"
         inkscape:connector-curvature="0"
         style="fill:#cf4517;fill-rule:evenodd" />
      <circle
         transform="matrix(0.01547371,0,0,0.01547371,-222.12167,227.0364)"
         class="fil6"
         cx="2257"
         cy="2889"
         r="824"
         id="circle26"
         sodipodi:cx="2257"
         sodipodi:cy="2889"
         sodipodi:rx="824"
         sodipodi:ry="824"
         style="fill:#ffff00;fill-rule:evenodd"
         d="m 3081,2889 c 0,455.0826 -368.9174,824 -824,824 -455.0826,0 -824,-368.9174 -824,-824 0,-455.0826 368.9174,-824 824,-824 455.0826,0 824,368.9174 824,824 z" />
      <path
         class="fil7"
         d="m -187.16656,258.4635 c 3.822,0 7.27264,1.54737 9.77938,4.05411 2.36748,2.38295 3.86843,5.63243 3.99222,9.22233 l -2.1199,0 c -0.13926,-3.0019 -1.42358,-5.69432 -3.41969,-7.69043 -2.10442,-2.10442 -5.02896,-3.41969 -8.23201,-3.41969 -3.21853,0 -6.12759,1.29979 -8.23201,3.41969 -2.01158,1.98063 -3.31138,4.68853 -3.46612,7.69043 l -2.11989,0 c 0.13926,-3.60537 1.65568,-6.83938 4.03863,-9.22233 2.50675,-2.50674 5.95738,-4.05411 9.77939,-4.05411 z"
         id="path28"
         inkscape:connector-curvature="0"
         style="fill:#b38730;fill-rule:nonzero" />
      <g
         transform="matrix(0.01547371,0,0,0.01547371,-222.12167,227.0364)"
         id="_664248832"
         style="fill-rule:evenodd">
        <path
           class="fil10"
           d="m 2257,1995 c 247,0 470,100 632,262 162,162 262,385 262,632 0,247 -100,470 -262,632 -162,162 -385,262 -632,262 -247,0 -470,-100 -632,-262 -162,-162 -262,-385 -262,-632 0,-247 100,-470 262,-632 162,-162 385,-262 632,-262 z m 532,362 c -136,-136 -325,-221 -532,-221 -208,0 -396,84 -532,221 -136,136 -221,325 -221,532 0,208 84,396 221,532 136,136 324,221 532,221 208,0 396,-84 532,-221 136,-136 221,-324 221,-532 0,-208 -84,-396 -221,-532 z"
           id="path35"
           inkscape:connector-curvature="0"
           style="fill:#cc9933;fill-rule:nonzero" />
        <path
           class="fil11"
           d="m 3152,2889 c 0,247 -100,470 -262,632 -162,162 -385,262 -632,262 -247,0 -470,-100 -632,-262 -162,-162 -262,-385 -262,-632 l 141,0 c 0,208 84,396 221,532 136,136 324,221 532,221 208,0 396,-84 532,-221 136,-136 221,-324 221,-532 l 141,0 z"
           id="path37"
           inkscape:connector-curvature="0"
           style="fill:#ba8c2f;fill-rule:nonzero" />
      </g>
      <text
         sodipodi:linespacing="125%"
         id="text3039-7"
         y="272.56918"
         x="-194.83298"
         style="font-size:10.61899948px;font-style:normal;font-variant:normal;font-weight:normal;font-stretch:normal;line-height:125%;letter-spacing:0px;word-spacing:0px;fill:#d45500;fill-opacity:1;fill-rule:evenodd;stroke:none;font-family:Meera;-inkscape-font-specification:Meera"
         xml:space="preserve"><tspan
           style="font-style:normal;font-variant:normal;font-weight:bold;font-stretch:condensed;fill:#d45500;font-family:PT Sans Narrow;-inkscape-font-specification:PT Sans Narrow Bold Condensed"
           y="272.56918"
           x="-194.83298"
           id="tspan3041-4"
           sodipodi:role="line">TAX</tspan></text>
      <text
         sodipodi:linespacing="125%"
         id="text3039"
         y="272.5235"
         x="-195.04533"
         style="font-size:10.61900043px;font-style:normal;font-variant:normal;font-weight:normal;font-stretch:normal;line-height:125%;letter-spacing:0px;word-spacing:0px;fill:#000000;fill-opacity:1;fill-rule:evenodd;stroke:none;font-family:Meera;-inkscape-font-specification:Meera"
         xml:space="preserve"><tspan
           style="font-style:normal;font-variant:normal;font-weight:bold;font-stretch:condensed;font-family:PT Sans Narrow;-inkscape-font-specification:PT Sans Narrow Bold Condensed"
           y="272.5235"
           x="-195.04533"
           id="tspan3041"
           sodipodi:role="line">TAX</tspan></text>
      <text
         sodipodi:linespacing="125%"
         id="text3076-9"
         y="276.6344"
         x="-196.48849"
         style="font-size:4.449224px;font-style:normal;font-variant:normal;font-weight:bold;font-stretch:normal;line-height:125%;letter-spacing:0px;word-spacing:0px;fill:#aa4400;fill-opacity:1;fill-rule:evenodd;stroke:none;font-family:Waree;-inkscape-font-specification:Waree Bold"
         xml:space="preserve"><tspan
           y="276.6344"
           x="-196.48849"
           id="tspan3078-8"
           sodipodi:role="line">WORLD</tspan></text>
      <text
         sodipodi:linespacing="125%"
         id="text3076"
         y="276.68796"
         x="-196.6716"
         style="font-size:4.44922447px;font-style:normal;font-variant:normal;font-weight:bold;font-stretch:normal;line-height:125%;letter-spacing:0px;word-spacing:0px;fill:#000000;fill-opacity:1;fill-rule:evenodd;stroke:none;font-family:Waree;-inkscape-font-specification:Waree Bold"
         xml:space="preserve"><tspan
           y="276.68796"
           x="-196.6716"
           id="tspan3078"
           sodipodi:role="line">WORLD</tspan></text>
      <text
         sodipodi:linespacing="125%"
         id="text3101-1"
         y="280.27094"
         x="-191.23148"
         style="font-size:3.65251994px;font-style:normal;font-weight:bold;line-height:125%;letter-spacing:0px;word-spacing:0px;fill:#aa4400;fill-opacity:1;fill-rule:evenodd;stroke:none;font-family:Sans;-inkscape-font-specification:Sans Bold"
         xml:space="preserve"><tspan
           y="280.27094"
           x="-191.23148"
           id="tspan3103-7"
           sodipodi:role="line">2014</tspan></text>
      <text
         sodipodi:linespacing="125%"
         id="text3101"
         y="280.28873"
         x="-191.30038"
         style="font-size:3.65252018px;font-style:normal;font-weight:bold;line-height:125%;letter-spacing:0px;word-spacing:0px;fill:#000000;fill-opacity:1;fill-rule:evenodd;stroke:none;font-family:Sans;-inkscape-font-specification:Sans Bold"
         xml:space="preserve"><tspan
           y="280.28873"
           x="-191.30038"
           id="tspan3103"
           sodipodi:role="line">2014</tspan></text>
    </g>
  </g>
</svg>
